<?xml version="1.0" encoding="utf-8"?><!-- Uploaded to: SVG Repo, www.svgrepo.com, Generator: SVG Repo Mixer Tools -->
<svg width="800px" height="800px" viewBox="0 0 24 24" fill="none" xmlns="http://www.w3.org/2000/svg">
<path fill-rule="evenodd" clip-rule="evenodd" d="M8.6231 5.93966C7.75276 6.37483 7.5 6.83725 7.5 7.125C7.5 7.41275 7.75276 7.87517 8.6231 8.31034C9.44857 8.72307 10.6414 9 12 9C13.3586 9 14.5514 8.72307 15.3769 8.31034C16.2472 7.87517 16.5 7.41275 16.5 7.125C16.5 6.83725 16.2472 6.37483 15.3769 5.93966C14.5514 5.52693 13.3586 5.25 12 5.25C10.6414 5.25 9.44857 5.52693 8.6231 5.93966ZM16.5 9.39844C16.3535 9.4904 16.2018 9.57494 16.0477 9.65198C14.9731 10.1893 13.5409 10.5 12 10.5C10.4591 10.5 9.02693 10.1893 7.95228 9.65198C7.79821 9.57494 7.64654 9.4904 7.5 9.39844V10.375C7.5 10.7155 7.77767 11.2057 8.63569 11.6552C9.45819 12.086 10.6464 12.375 12 12.375C13.3536 12.375 14.5418 12.086 15.3643 11.6552C16.2223 11.2057 16.5 10.7155 16.5 10.375V9.39844ZM18 7.125V10.375C18 10.417 17.9989 10.4587 17.9966 10.5H18V13.375C18 13.417 17.9989 13.4587 17.9966 13.5H18V16.375C18 17.5532 17.1024 18.4381 16.0603 18.9839C14.9827 19.5484 13.5459 19.875 12 19.875C10.4541 19.875 9.01731 19.5484 7.93968 18.9839C6.89758 18.4381 6 17.5532 6 16.375V13.5H6.00339C6.00114 13.4587 6 13.417 6 13.375V10.5H6.00339C6.00114 10.4587 6 10.417 6 10.375V7.125C6 5.96301 6.92249 5.11292 7.95228 4.59802C9.02693 4.0607 10.4591 3.75 12 3.75C13.5409 3.75 14.9731 4.0607 16.0477 4.59802C17.0775 5.11292 18 5.96301 18 7.125ZM7.5 15.7267V16.375C7.5 16.7155 7.77767 17.2057 8.63569 17.6552C9.45819 18.086 10.6464 18.375 12 18.375C13.3536 18.375 14.5418 18.086 15.3643 17.6552C16.2223 17.2057 16.5 16.7155 16.5 16.375V15.7267C16.358 15.8194 16.2106 15.9052 16.0603 15.9839C14.9827 16.5484 13.5459 16.875 12 16.875C10.4541 16.875 9.01731 16.5484 7.93968 15.9839C7.78936 15.9052 7.64205 15.8194 7.5 15.7267ZM16.0603 12.9839C16.2106 12.9052 16.358 12.8194 16.5 12.7267V13.375C16.5 13.7155 16.2223 14.2057 15.3643 14.6552C14.5418 15.086 13.3536 15.375 12 15.375C10.6464 15.375 9.45819 15.086 8.63569 14.6552C7.77767 14.2057 7.5 13.7155 7.5 13.375V12.7267C7.64205 12.8194 7.78936 12.9052 7.93968 12.9839C9.01731 13.5484 10.4541 13.875 12 13.875C13.5459 13.875 14.9827 13.5484 16.0603 12.9839Z" fill="#080341"/>
</svg>